<svg width="340" height="187" viewBox="0 0 340 187" fill="none" xmlns="http://www.w3.org/2000/svg">
<rect x="0.5" y="0.48999" width="339" height="185.75" stroke="#D1D2E0"/>
<path d="M104.967 160.495H102.069V158.667H104.967C105.415 158.667 105.78 158.594 106.061 158.448C106.342 158.297 106.548 158.089 106.678 157.823C106.808 157.558 106.874 157.258 106.874 156.925C106.874 156.586 106.808 156.271 106.678 155.98C106.548 155.688 106.342 155.454 106.061 155.277C105.78 155.099 105.415 155.011 104.967 155.011H102.881V164.55H100.538V153.175H104.967C105.858 153.175 106.621 153.336 107.256 153.659C107.897 153.977 108.387 154.417 108.725 154.98C109.064 155.542 109.233 156.185 109.233 156.909C109.233 157.644 109.064 158.279 108.725 158.816C108.387 159.352 107.897 159.766 107.256 160.058C106.621 160.349 105.858 160.495 104.967 160.495ZM112.959 157.941V164.55H110.709V156.097H112.827L112.959 157.941ZM115.506 156.042L115.467 158.128C115.358 158.112 115.225 158.099 115.069 158.089C114.918 158.073 114.78 158.066 114.655 158.066C114.337 158.066 114.061 158.107 113.827 158.191C113.597 158.269 113.405 158.386 113.249 158.542C113.097 158.698 112.983 158.889 112.905 159.112C112.832 159.336 112.79 159.592 112.78 159.878L112.327 159.737C112.327 159.191 112.381 158.688 112.491 158.23C112.6 157.766 112.759 157.362 112.967 157.019C113.181 156.675 113.441 156.409 113.749 156.222C114.056 156.034 114.407 155.941 114.803 155.941C114.928 155.941 115.056 155.951 115.186 155.972C115.316 155.987 115.423 156.011 115.506 156.042ZM120.303 164.706C119.647 164.706 119.058 164.602 118.538 164.394C118.017 164.18 117.574 163.886 117.209 163.511C116.85 163.136 116.574 162.701 116.381 162.206C116.189 161.706 116.092 161.175 116.092 160.612V160.3C116.092 159.659 116.183 159.073 116.366 158.542C116.548 158.011 116.808 157.55 117.147 157.159C117.491 156.769 117.907 156.469 118.397 156.261C118.887 156.047 119.439 155.941 120.053 155.941C120.652 155.941 121.183 156.04 121.647 156.237C122.111 156.435 122.499 156.717 122.811 157.081C123.129 157.446 123.368 157.883 123.53 158.394C123.691 158.899 123.772 159.461 123.772 160.081V161.019H117.053V159.519H121.561V159.347C121.561 159.034 121.504 158.756 121.389 158.511C121.28 158.261 121.113 158.063 120.889 157.917C120.665 157.771 120.379 157.698 120.03 157.698C119.733 157.698 119.478 157.764 119.264 157.894C119.051 158.024 118.876 158.206 118.741 158.441C118.611 158.675 118.512 158.951 118.444 159.269C118.381 159.581 118.35 159.925 118.35 160.3V160.612C118.35 160.951 118.397 161.264 118.491 161.55C118.59 161.836 118.728 162.084 118.905 162.292C119.087 162.501 119.306 162.662 119.561 162.777C119.821 162.891 120.116 162.948 120.444 162.948C120.85 162.948 121.228 162.87 121.577 162.714C121.931 162.553 122.236 162.31 122.491 161.987L123.584 163.175C123.407 163.43 123.165 163.675 122.858 163.909C122.556 164.144 122.191 164.336 121.764 164.487C121.337 164.633 120.85 164.706 120.303 164.706ZM127.819 162.909L129.694 156.097H132.045L129.194 164.55H127.772L127.819 162.909ZM126.53 156.097L128.413 162.917L128.452 164.55H127.022L124.17 156.097H126.53ZM135.428 156.097V164.55H133.17V156.097H135.428ZM133.03 153.894C133.03 153.566 133.144 153.295 133.374 153.081C133.603 152.868 133.91 152.761 134.295 152.761C134.676 152.761 134.98 152.868 135.209 153.081C135.444 153.295 135.561 153.566 135.561 153.894C135.561 154.222 135.444 154.493 135.209 154.706C134.98 154.92 134.676 155.027 134.295 155.027C133.91 155.027 133.603 154.92 133.374 154.706C133.144 154.493 133.03 154.222 133.03 153.894ZM141.178 164.706C140.522 164.706 139.933 164.602 139.413 164.394C138.892 164.18 138.449 163.886 138.084 163.511C137.725 163.136 137.449 162.701 137.256 162.206C137.064 161.706 136.967 161.175 136.967 160.612V160.3C136.967 159.659 137.058 159.073 137.241 158.542C137.423 158.011 137.683 157.55 138.022 157.159C138.366 156.769 138.782 156.469 139.272 156.261C139.762 156.047 140.314 155.941 140.928 155.941C141.527 155.941 142.058 156.04 142.522 156.237C142.986 156.435 143.374 156.717 143.686 157.081C144.004 157.446 144.243 157.883 144.405 158.394C144.566 158.899 144.647 159.461 144.647 160.081V161.019H137.928V159.519H142.436V159.347C142.436 159.034 142.379 158.756 142.264 158.511C142.155 158.261 141.988 158.063 141.764 157.917C141.54 157.771 141.254 157.698 140.905 157.698C140.608 157.698 140.353 157.764 140.139 157.894C139.926 158.024 139.751 158.206 139.616 158.441C139.486 158.675 139.387 158.951 139.319 159.269C139.256 159.581 139.225 159.925 139.225 160.3V160.612C139.225 160.951 139.272 161.264 139.366 161.55C139.465 161.836 139.603 162.084 139.78 162.292C139.962 162.501 140.181 162.662 140.436 162.777C140.696 162.891 140.991 162.948 141.319 162.948C141.725 162.948 142.103 162.87 142.452 162.714C142.806 162.553 143.111 162.31 143.366 161.987L144.459 163.175C144.282 163.43 144.04 163.675 143.733 163.909C143.431 164.144 143.066 164.336 142.639 164.487C142.212 164.633 141.725 164.706 141.178 164.706ZM148.342 162.362L150.1 156.097H151.53L151.069 158.558L149.311 164.55H148.116L148.342 162.362ZM147.452 156.097L148.709 162.355L148.827 164.55H147.42L145.28 156.097H147.452ZM153.139 162.253L154.366 156.097H156.545L154.405 164.55H153.006L153.139 162.253ZM151.725 156.097L153.475 162.316L153.717 164.55H152.514L150.756 158.566L150.311 156.097H151.725ZM165.803 156.097V157.691H160.881V156.097H165.803ZM162.1 154.011H164.35V162.003C164.35 162.248 164.381 162.435 164.444 162.566C164.512 162.696 164.611 162.787 164.741 162.839C164.871 162.886 165.035 162.909 165.233 162.909C165.374 162.909 165.499 162.904 165.608 162.894C165.722 162.878 165.819 162.862 165.897 162.847L165.905 164.503C165.712 164.566 165.504 164.615 165.28 164.652C165.056 164.688 164.808 164.706 164.538 164.706C164.043 164.706 163.611 164.626 163.241 164.464C162.876 164.297 162.595 164.032 162.397 163.667C162.199 163.303 162.1 162.823 162.1 162.23V154.011ZM169.28 152.55V164.55H167.03V152.55H169.28ZM168.959 160.027H168.342C168.347 159.438 168.426 158.896 168.577 158.402C168.728 157.902 168.944 157.469 169.225 157.105C169.506 156.735 169.842 156.448 170.233 156.245C170.629 156.042 171.066 155.941 171.545 155.941C171.962 155.941 172.34 156.001 172.678 156.12C173.022 156.235 173.316 156.422 173.561 156.683C173.811 156.938 174.004 157.274 174.139 157.691C174.275 158.107 174.342 158.612 174.342 159.206V164.55H172.077V159.191C172.077 158.816 172.022 158.521 171.913 158.308C171.808 158.089 171.655 157.935 171.452 157.847C171.254 157.753 171.009 157.706 170.717 157.706C170.394 157.706 170.118 157.766 169.889 157.886C169.665 158.006 169.486 158.172 169.35 158.386C169.215 158.594 169.116 158.839 169.053 159.12C168.991 159.402 168.959 159.704 168.959 160.027ZM178.428 156.097V164.55H176.17V156.097H178.428ZM176.03 153.894C176.03 153.566 176.144 153.295 176.374 153.081C176.603 152.868 176.91 152.761 177.295 152.761C177.676 152.761 177.98 152.868 178.209 153.081C178.444 153.295 178.561 153.566 178.561 153.894C178.561 154.222 178.444 154.493 178.209 154.706C177.98 154.92 177.676 155.027 177.295 155.027C176.91 155.027 176.603 154.92 176.374 154.706C176.144 154.493 176.03 154.222 176.03 153.894ZM184.858 162.214C184.858 162.053 184.811 161.907 184.717 161.777C184.624 161.646 184.449 161.527 184.194 161.417C183.944 161.303 183.582 161.198 183.108 161.105C182.681 161.011 182.282 160.894 181.913 160.753C181.548 160.607 181.23 160.433 180.959 160.23C180.694 160.027 180.486 159.787 180.334 159.511C180.183 159.23 180.108 158.909 180.108 158.55C180.108 158.196 180.183 157.862 180.334 157.55C180.491 157.237 180.712 156.961 180.999 156.722C181.29 156.477 181.644 156.287 182.061 156.152C182.483 156.011 182.957 155.941 183.483 155.941C184.217 155.941 184.847 156.058 185.374 156.292C185.905 156.527 186.311 156.849 186.592 157.261C186.879 157.667 187.022 158.131 187.022 158.652H184.772C184.772 158.433 184.725 158.237 184.631 158.066C184.543 157.889 184.402 157.751 184.209 157.652C184.022 157.547 183.777 157.495 183.475 157.495C183.225 157.495 183.009 157.54 182.827 157.628C182.644 157.711 182.504 157.826 182.405 157.972C182.311 158.112 182.264 158.269 182.264 158.441C182.264 158.571 182.29 158.688 182.342 158.792C182.4 158.891 182.491 158.982 182.616 159.066C182.741 159.149 182.902 159.227 183.1 159.3C183.303 159.368 183.553 159.43 183.85 159.487C184.459 159.612 185.004 159.777 185.483 159.98C185.962 160.178 186.342 160.448 186.624 160.792C186.905 161.131 187.045 161.576 187.045 162.128C187.045 162.503 186.962 162.847 186.795 163.159C186.629 163.472 186.389 163.745 186.077 163.98C185.764 164.209 185.389 164.389 184.952 164.519C184.519 164.644 184.032 164.706 183.491 164.706C182.704 164.706 182.038 164.566 181.491 164.284C180.949 164.003 180.538 163.646 180.256 163.214C179.98 162.777 179.842 162.329 179.842 161.87H181.975C181.986 162.178 182.064 162.425 182.209 162.612C182.361 162.8 182.551 162.935 182.78 163.019C183.014 163.102 183.267 163.144 183.538 163.144C183.829 163.144 184.071 163.105 184.264 163.027C184.457 162.943 184.603 162.834 184.702 162.698C184.806 162.558 184.858 162.396 184.858 162.214ZM195.983 162.948C196.259 162.948 196.504 162.896 196.717 162.792C196.931 162.683 197.097 162.532 197.217 162.339C197.342 162.141 197.407 161.909 197.413 161.644H199.53C199.525 162.237 199.366 162.766 199.053 163.23C198.741 163.688 198.321 164.05 197.795 164.316C197.269 164.576 196.681 164.706 196.03 164.706C195.374 164.706 194.801 164.597 194.311 164.378C193.827 164.159 193.423 163.857 193.1 163.472C192.777 163.081 192.535 162.628 192.374 162.112C192.212 161.592 192.131 161.034 192.131 160.441V160.214C192.131 159.615 192.212 159.058 192.374 158.542C192.535 158.021 192.777 157.568 193.1 157.183C193.423 156.792 193.827 156.487 194.311 156.269C194.795 156.05 195.363 155.941 196.014 155.941C196.707 155.941 197.314 156.073 197.834 156.339C198.361 156.605 198.772 156.985 199.069 157.48C199.371 157.969 199.525 158.55 199.53 159.222H197.413C197.407 158.941 197.347 158.685 197.233 158.456C197.124 158.227 196.962 158.045 196.749 157.909C196.54 157.769 196.282 157.698 195.975 157.698C195.647 157.698 195.379 157.769 195.17 157.909C194.962 158.045 194.801 158.232 194.686 158.472C194.571 158.706 194.491 158.974 194.444 159.277C194.402 159.573 194.381 159.886 194.381 160.214V160.441C194.381 160.769 194.402 161.084 194.444 161.386C194.486 161.688 194.564 161.956 194.678 162.191C194.798 162.425 194.962 162.61 195.17 162.745C195.379 162.881 195.65 162.948 195.983 162.948ZM200.475 160.409V160.245C200.475 159.626 200.564 159.055 200.741 158.534C200.918 158.008 201.176 157.553 201.514 157.167C201.853 156.782 202.269 156.482 202.764 156.269C203.259 156.05 203.827 155.941 204.467 155.941C205.108 155.941 205.678 156.05 206.178 156.269C206.678 156.482 207.097 156.782 207.436 157.167C207.78 157.553 208.04 158.008 208.217 158.534C208.394 159.055 208.483 159.626 208.483 160.245V160.409C208.483 161.024 208.394 161.594 208.217 162.12C208.04 162.641 207.78 163.097 207.436 163.487C207.097 163.873 206.681 164.172 206.186 164.386C205.691 164.599 205.124 164.706 204.483 164.706C203.842 164.706 203.272 164.599 202.772 164.386C202.277 164.172 201.858 163.873 201.514 163.487C201.176 163.097 200.918 162.641 200.741 162.12C200.564 161.594 200.475 161.024 200.475 160.409ZM202.725 160.245V160.409C202.725 160.764 202.756 161.094 202.819 161.402C202.881 161.709 202.98 161.98 203.116 162.214C203.256 162.443 203.439 162.623 203.663 162.753C203.887 162.883 204.16 162.948 204.483 162.948C204.795 162.948 205.064 162.883 205.288 162.753C205.512 162.623 205.691 162.443 205.827 162.214C205.962 161.98 206.061 161.709 206.124 161.402C206.191 161.094 206.225 160.764 206.225 160.409V160.245C206.225 159.902 206.191 159.579 206.124 159.277C206.061 158.969 205.959 158.698 205.819 158.464C205.683 158.224 205.504 158.037 205.28 157.902C205.056 157.766 204.785 157.698 204.467 157.698C204.15 157.698 203.879 157.766 203.655 157.902C203.436 158.037 203.256 158.224 203.116 158.464C202.98 158.698 202.881 158.969 202.819 159.277C202.756 159.579 202.725 159.902 202.725 160.245ZM214.866 162.527V156.097H217.116V164.55H214.999L214.866 162.527ZM215.116 160.792L215.78 160.777C215.78 161.339 215.715 161.862 215.584 162.347C215.454 162.826 215.259 163.243 214.999 163.597C214.738 163.946 214.41 164.219 214.014 164.417C213.618 164.61 213.152 164.706 212.616 164.706C212.204 164.706 211.824 164.649 211.475 164.534C211.131 164.415 210.834 164.23 210.584 163.98C210.34 163.724 210.147 163.399 210.006 163.003C209.871 162.602 209.803 162.12 209.803 161.558V156.097H212.053V161.573C212.053 161.823 212.082 162.034 212.139 162.206C212.202 162.378 212.288 162.519 212.397 162.628C212.506 162.737 212.634 162.816 212.78 162.862C212.931 162.909 213.097 162.933 213.28 162.933C213.743 162.933 214.108 162.839 214.374 162.652C214.644 162.464 214.834 162.209 214.944 161.886C215.058 161.558 215.116 161.193 215.116 160.792ZM221.084 157.941V164.55H218.834V156.097H220.952L221.084 157.941ZM223.631 156.042L223.592 158.128C223.483 158.112 223.35 158.099 223.194 158.089C223.043 158.073 222.905 158.066 222.78 158.066C222.462 158.066 222.186 158.107 221.952 158.191C221.722 158.269 221.53 158.386 221.374 158.542C221.222 158.698 221.108 158.889 221.03 159.112C220.957 159.336 220.915 159.592 220.905 159.878L220.452 159.737C220.452 159.191 220.506 158.688 220.616 158.23C220.725 157.766 220.884 157.362 221.092 157.019C221.306 156.675 221.566 156.409 221.874 156.222C222.181 156.034 222.532 155.941 222.928 155.941C223.053 155.941 223.181 155.951 223.311 155.972C223.441 155.987 223.548 156.011 223.631 156.042ZM229.264 162.214C229.264 162.053 229.217 161.907 229.124 161.777C229.03 161.646 228.855 161.527 228.6 161.417C228.35 161.303 227.988 161.198 227.514 161.105C227.087 161.011 226.689 160.894 226.319 160.753C225.954 160.607 225.637 160.433 225.366 160.23C225.1 160.027 224.892 159.787 224.741 159.511C224.59 159.23 224.514 158.909 224.514 158.55C224.514 158.196 224.59 157.862 224.741 157.55C224.897 157.237 225.118 156.961 225.405 156.722C225.696 156.477 226.051 156.287 226.467 156.152C226.889 156.011 227.363 155.941 227.889 155.941C228.624 155.941 229.254 156.058 229.78 156.292C230.311 156.527 230.717 156.849 230.999 157.261C231.285 157.667 231.428 158.131 231.428 158.652H229.178C229.178 158.433 229.131 158.237 229.038 158.066C228.949 157.889 228.808 157.751 228.616 157.652C228.428 157.547 228.183 157.495 227.881 157.495C227.631 157.495 227.415 157.54 227.233 157.628C227.051 157.711 226.91 157.826 226.811 157.972C226.717 158.112 226.67 158.269 226.67 158.441C226.67 158.571 226.696 158.688 226.749 158.792C226.806 158.891 226.897 158.982 227.022 159.066C227.147 159.149 227.308 159.227 227.506 159.3C227.709 159.368 227.959 159.43 228.256 159.487C228.866 159.612 229.41 159.777 229.889 159.98C230.368 160.178 230.749 160.448 231.03 160.792C231.311 161.131 231.452 161.576 231.452 162.128C231.452 162.503 231.368 162.847 231.202 163.159C231.035 163.472 230.795 163.745 230.483 163.98C230.17 164.209 229.795 164.389 229.358 164.519C228.926 164.644 228.439 164.706 227.897 164.706C227.111 164.706 226.444 164.566 225.897 164.284C225.355 164.003 224.944 163.646 224.663 163.214C224.387 162.777 224.249 162.329 224.249 161.87H226.381C226.392 162.178 226.47 162.425 226.616 162.612C226.767 162.8 226.957 162.935 227.186 163.019C227.42 163.102 227.673 163.144 227.944 163.144C228.236 163.144 228.478 163.105 228.67 163.027C228.863 162.943 229.009 162.834 229.108 162.698C229.212 162.558 229.264 162.396 229.264 162.214ZM236.803 164.706C236.147 164.706 235.558 164.602 235.038 164.394C234.517 164.18 234.074 163.886 233.709 163.511C233.35 163.136 233.074 162.701 232.881 162.206C232.689 161.706 232.592 161.175 232.592 160.612V160.3C232.592 159.659 232.683 159.073 232.866 158.542C233.048 158.011 233.308 157.55 233.647 157.159C233.991 156.769 234.407 156.469 234.897 156.261C235.387 156.047 235.939 155.941 236.553 155.941C237.152 155.941 237.683 156.04 238.147 156.237C238.611 156.435 238.999 156.717 239.311 157.081C239.629 157.446 239.868 157.883 240.03 158.394C240.191 158.899 240.272 159.461 240.272 160.081V161.019H233.553V159.519H238.061V159.347C238.061 159.034 238.004 158.756 237.889 158.511C237.78 158.261 237.613 158.063 237.389 157.917C237.165 157.771 236.879 157.698 236.53 157.698C236.233 157.698 235.978 157.764 235.764 157.894C235.551 158.024 235.376 158.206 235.241 158.441C235.111 158.675 235.012 158.951 234.944 159.269C234.881 159.581 234.85 159.925 234.85 160.3V160.612C234.85 160.951 234.897 161.264 234.991 161.55C235.09 161.836 235.228 162.084 235.405 162.292C235.587 162.501 235.806 162.662 236.061 162.777C236.321 162.891 236.616 162.948 236.944 162.948C237.35 162.948 237.728 162.87 238.077 162.714C238.431 162.553 238.736 162.31 238.991 161.987L240.084 163.175C239.907 163.43 239.665 163.675 239.358 163.909C239.056 164.144 238.691 164.336 238.264 164.487C237.837 164.633 237.35 164.706 236.803 164.706Z" fill="white"/>
</svg>
