<svg width="16" height="21" viewBox="0 0 16 21" fill="none" xmlns="http://www.w3.org/2000/svg">
<path d="M7.36017 12.2191L9.9665 10.5489C10.1366 10.4369 10.2217 10.2801 10.2217 10.0785C10.2217 9.87687 10.1366 9.72007 9.9665 9.60809L7.36017 7.93791C7.17639 7.81483 6.98706 7.80477 6.79217 7.90775C6.59728 8.01073 6.49984 8.17415 6.49984 8.39799V11.759C6.49984 11.9829 6.59728 12.1463 6.79217 12.2492C6.98706 12.3522 7.17639 12.3422 7.36017 12.2191ZM2.87167 15.0775C2.53489 15.0775 2.24984 14.9609 2.0165 14.7276C1.78317 14.4943 1.6665 14.2093 1.6665 13.8726V6.2844C1.6665 5.94769 1.78317 5.66269 2.0165 5.4294C2.24984 5.19611 2.53489 5.07947 2.87167 5.07947H13.128C13.4648 5.07947 13.7498 5.19611 13.9832 5.4294C14.2165 5.66269 14.3332 5.94769 14.3332 6.2844V13.8726C14.3332 14.2093 14.2165 14.4943 13.9832 14.7276C13.7498 14.9609 13.4648 15.0775 13.128 15.0775H10.3332V15.8081C10.3332 15.9799 10.2757 16.1233 10.1607 16.2381C10.0458 16.3531 9.90239 16.4106 9.7305 16.4106H6.26917C6.09728 16.4106 5.95389 16.3531 5.839 16.2381C5.724 16.1233 5.6665 15.9799 5.6665 15.8081V15.0775H2.87167ZM2.87167 14.0777H13.128C13.1793 14.0777 13.2263 14.0563 13.269 14.0136C13.3118 13.9709 13.3332 13.9239 13.3332 13.8726V6.2844C13.3332 6.23308 13.3118 6.18609 13.269 6.14343C13.2263 6.10066 13.1793 6.07927 13.128 6.07927H2.87167C2.82034 6.07927 2.77334 6.10066 2.73067 6.14343C2.68789 6.18609 2.6665 6.23308 2.6665 6.2844V13.8726C2.6665 13.9239 2.68789 13.9709 2.73067 14.0136C2.77334 14.0563 2.82034 14.0777 2.87167 14.0777Z" fill="#2A2B3F"/>
</svg>
