<svg width="70" height="15" viewBox="0 0 70 15" fill="none" xmlns="http://www.w3.org/2000/svg">
<path d="M34.9998 10.2851L32.7305 11.6536C32.6459 11.703 32.5612 11.7238 32.4763 11.7159C32.3914 11.708 32.3146 11.6794 32.2459 11.6301C32.177 11.5808 32.1239 11.5162 32.0865 11.4366C32.0491 11.357 32.0432 11.2689 32.0685 11.1724L32.671 8.59564L30.6675 6.86139C30.5927 6.79635 30.545 6.721 30.5245 6.63535C30.5038 6.5497 30.5092 6.46648 30.5406 6.38568C30.572 6.30499 30.6173 6.23903 30.6764 6.18779C30.7355 6.13655 30.8163 6.10306 30.9188 6.08731L33.5627 5.85631L34.5893 3.42308C34.6266 3.33257 34.6832 3.26563 34.7592 3.22227C34.8351 3.17891 34.9153 3.15723 34.9998 3.15723C35.0843 3.15723 35.1645 3.17891 35.2404 3.22227C35.3163 3.26563 35.373 3.33257 35.4103 3.42308L36.4368 5.85631L39.0808 6.08731C39.1833 6.10306 39.2641 6.13655 39.3232 6.18779C39.3823 6.23903 39.4275 6.30499 39.4589 6.38568C39.4903 6.46648 39.4957 6.5497 39.4751 6.63535C39.4546 6.721 39.4069 6.79635 39.3321 6.86139L37.3286 8.59564L37.931 11.1724C37.9564 11.2689 37.9504 11.357 37.9131 11.4366C37.8757 11.5162 37.8225 11.5808 37.7537 11.6301C37.685 11.6794 37.6082 11.708 37.5233 11.7159C37.4384 11.7238 37.3537 11.703 37.2691 11.6536L34.9998 10.2851Z" stroke="#C4710D" stroke-width="1.16667"/>
</svg>
