<svg width="17" height="17" viewBox="0 0 17 17" fill="none" xmlns="http://www.w3.org/2000/svg">
<path d="M8.4598 15.3033C7.59146 15.3033 6.77202 15.1368 6.00147 14.8039C5.23091 14.471 4.55891 14.0178 3.98546 13.4443C3.41191 12.8708 2.95869 12.1988 2.6258 11.4283C2.29291 10.6577 2.12646 9.83826 2.12646 8.96993C2.12646 8.09471 2.29291 7.27354 2.6258 6.50643C2.95869 5.73932 3.41191 5.06904 3.98546 4.4956C4.55891 3.92204 5.23091 3.46882 6.00147 3.13593C6.77202 2.80304 7.59146 2.6366 8.4598 2.6366C9.33502 2.6366 10.1562 2.80304 10.9233 3.13593C11.6904 3.46882 12.3607 3.92204 12.9341 4.4956C13.5077 5.06904 13.9609 5.73932 14.2938 6.50643C14.6267 7.27354 14.7931 8.09471 14.7931 8.96993C14.7931 9.83826 14.6267 10.6577 14.2938 11.4283C13.9609 12.1988 13.5077 12.8708 12.9341 13.4443C12.3607 14.0178 11.6904 14.471 10.9233 14.8039C10.1562 15.1368 9.33502 15.3033 8.4598 15.3033ZM8.4598 14.2891C8.80002 13.8379 9.08635 13.3828 9.3188 12.9238C9.55124 12.4648 9.74058 11.963 9.8868 11.4186H7.0328C7.18758 11.9802 7.37908 12.4904 7.6073 12.9494C7.83541 13.4084 8.11958 13.855 8.4598 14.2891ZM7.1688 14.1058C6.91324 13.7391 6.68374 13.3223 6.4803 12.8553C6.27685 12.3882 6.11874 11.9093 6.00596 11.4186H3.74446C4.09658 12.1109 4.5688 12.6926 5.16113 13.1636C5.75346 13.6345 6.42269 13.9485 7.1688 14.1058ZM9.7508 14.1058C10.4969 13.9485 11.1661 13.6345 11.7585 13.1636C12.3508 12.6926 12.823 12.1109 13.1751 11.4186H10.9136C10.7794 11.9135 10.6106 12.3945 10.4071 12.8616C10.2038 13.3287 9.98502 13.7434 9.7508 14.1058ZM3.32513 10.4186H5.80346C5.76158 10.1708 5.73119 9.92788 5.7123 9.68976C5.69352 9.45176 5.68413 9.21182 5.68413 8.96993C5.68413 8.72804 5.69352 8.4881 5.7123 8.2501C5.73119 8.01199 5.76158 7.76904 5.80346 7.52126H3.32513C3.26102 7.74771 3.21191 7.98315 3.1778 8.2276C3.14358 8.47204 3.12646 8.71949 3.12646 8.96993C3.12646 9.22037 3.14358 9.46782 3.1778 9.71226C3.21191 9.95671 3.26102 10.1922 3.32513 10.4186ZM6.8033 10.4186H10.1163C10.1581 10.1708 10.1884 9.93004 10.2073 9.69626C10.2261 9.46249 10.2355 9.22037 10.2355 8.96993C10.2355 8.71949 10.2261 8.47737 10.2073 8.2436C10.1884 8.00982 10.1581 7.76904 10.1163 7.52126H6.8033C6.76152 7.76904 6.73119 8.00982 6.7123 8.2436C6.69352 8.47737 6.68413 8.71949 6.68413 8.96993C6.68413 9.22037 6.69352 9.46249 6.7123 9.69626C6.73119 9.93004 6.76152 10.1708 6.8033 10.4186ZM11.1161 10.4186H13.5945C13.6586 10.1922 13.7077 9.95671 13.7418 9.71226C13.776 9.46782 13.7931 9.22037 13.7931 8.96993C13.7931 8.71949 13.776 8.47204 13.7418 8.2276C13.7077 7.98315 13.6586 7.74771 13.5945 7.52126H11.1161C11.158 7.76904 11.1884 8.01199 11.2073 8.2501C11.2261 8.4881 11.2355 8.72804 11.2355 8.96993C11.2355 9.21182 11.2261 9.45176 11.2073 9.68976C11.1884 9.92788 11.158 10.1708 11.1161 10.4186ZM10.9136 6.52126H13.1751C12.8188 5.82037 12.3498 5.23871 11.7681 4.77626C11.1865 4.31393 10.514 3.99771 9.7508 3.8276C10.0064 4.2156 10.2337 4.63999 10.4328 5.10076C10.632 5.56143 10.7923 6.03493 10.9136 6.52126ZM7.0328 6.52126H9.8868C9.73202 5.96393 9.53735 5.45043 9.3028 4.98076C9.06813 4.5111 8.78713 4.06776 8.4598 3.65076C8.13247 4.06776 7.85147 4.5111 7.6168 4.98076C7.38224 5.45043 7.18758 5.96393 7.0328 6.52126ZM3.74446 6.52126H6.00596C6.1273 6.03493 6.28758 5.56143 6.4868 5.10076C6.68591 4.63999 6.91324 4.2156 7.1688 3.8276C6.40124 3.99771 5.72774 4.31504 5.1483 4.7796C4.56874 5.24404 4.1008 5.8246 3.74446 6.52126Z" fill="white"/>
</svg>
