<svg width="20" height="21" viewBox="0 0 20 21" fill="none" xmlns="http://www.w3.org/2000/svg">
<path d="M9.99225 16.9046C9.81377 16.9046 9.63454 16.8726 9.45454 16.8085C9.27454 16.7444 9.11614 16.6439 8.97933 16.5073L7.78225 15.4191C6.30475 14.0719 4.98558 12.7485 3.82475 11.4487C2.66391 10.149 2.0835 8.75665 2.0835 7.27165C2.0835 6.08901 2.48225 5.09887 3.27975 4.30123C4.07738 3.50373 5.06752 3.10498 6.25016 3.10498C6.92211 3.10498 7.58586 3.25991 8.24141 3.56977C8.89683 3.87963 9.48308 4.38283 10.0002 5.07936C10.5172 4.38283 11.1035 3.87963 11.7589 3.56977C12.4145 3.25991 13.0782 3.10498 13.7502 3.10498C14.9328 3.10498 15.9229 3.50373 16.7206 4.30123C17.5181 5.09887 17.9168 6.08901 17.9168 7.27165C17.9168 8.77276 17.3266 10.1806 16.146 11.4952C14.9654 12.8098 13.6492 14.122 12.1972 15.4319L11.0129 16.5073C10.8762 16.6439 10.7166 16.7444 10.5339 16.8085C10.3511 16.8726 10.1706 16.9046 9.99225 16.9046ZM9.40079 6.3454C8.94995 5.65845 8.4753 5.15498 7.97683 4.83498C7.4785 4.51498 6.90294 4.35498 6.25016 4.35498C5.41683 4.35498 4.72238 4.63276 4.16683 5.18831C3.61127 5.74387 3.3335 6.43831 3.3335 7.27165C3.3335 7.9404 3.54905 8.63963 3.98016 9.36936C4.41127 10.0991 4.95238 10.8245 5.6035 11.5456C6.25461 12.2669 6.96002 12.9714 7.71975 13.6594C8.47933 14.3474 9.18336 14.9869 9.83183 15.5777C9.87989 15.6205 9.936 15.6419 10.0002 15.6419C10.0643 15.6419 10.1204 15.6205 10.1685 15.5777C10.817 14.9869 11.521 14.3474 12.2806 13.6594C13.0403 12.9714 13.7457 12.2669 14.3968 11.5456C15.0479 10.8245 15.5891 10.0991 16.0202 9.36936C16.4513 8.63963 16.6668 7.9404 16.6668 7.27165C16.6668 6.43831 16.3891 5.74387 15.8335 5.18831C15.2779 4.63276 14.5835 4.35498 13.7502 4.35498C13.0974 4.35498 12.5218 4.51498 12.0235 4.83498C11.525 5.15498 11.0504 5.65845 10.5995 6.3454C10.529 6.4522 10.4403 6.53234 10.3335 6.58581C10.2267 6.63915 10.1156 6.66581 10.0002 6.66581C9.88475 6.66581 9.77364 6.63915 9.66683 6.58581C9.56002 6.53234 9.47134 6.4522 9.40079 6.3454Z" fill="#6D28D2"/>
</svg>
