<svg width="17" height="17" viewBox="0 0 17 17" fill="none" xmlns="http://www.w3.org/2000/svg">
<path d="M8.16032 10.4649C8.07999 10.4649 8.00521 10.452 7.93599 10.4264C7.86676 10.4007 7.80093 10.3567 7.73849 10.2944L4.74232 7.29818C4.6501 7.20585 4.60288 7.0898 4.60065 6.95002C4.59854 6.81035 4.64576 6.69218 4.74232 6.59552C4.83899 6.49896 4.9561 6.45068 5.09365 6.45068C5.23121 6.45068 5.34832 6.49896 5.44499 6.59552L8.16032 9.31102L10.8757 6.59552C10.968 6.50329 11.084 6.45607 11.2238 6.45385C11.3635 6.45174 11.4817 6.49896 11.5783 6.59552C11.6749 6.69218 11.7232 6.8093 11.7232 6.94685C11.7232 7.08441 11.6749 7.20152 11.5783 7.29818L8.58215 10.2944C8.51971 10.3567 8.45388 10.4007 8.38465 10.4264C8.31543 10.452 8.24065 10.4649 8.16032 10.4649Z" fill="#6D28D2"/>
</svg>
