<svg width="20" height="21" viewBox="0 0 20 21" fill="none" xmlns="http://www.w3.org/2000/svg">
<path d="M9.99996 13.141C9.89954 13.141 9.80607 13.125 9.71954 13.0929C9.63302 13.0608 9.55072 13.0058 9.47267 12.9279L5.72746 9.18267C5.61218 9.06725 5.55316 8.92218 5.55038 8.74746C5.54774 8.57287 5.60677 8.42517 5.72746 8.30433C5.84829 8.18364 5.99468 8.12329 6.16663 8.12329C6.33857 8.12329 6.48496 8.18364 6.60579 8.30433L9.99996 11.6987L13.3941 8.30433C13.5095 8.18905 13.6546 8.13003 13.8293 8.12725C14.0039 8.12461 14.1516 8.18364 14.2725 8.30433C14.3932 8.42517 14.4535 8.57156 14.4535 8.7435C14.4535 8.91544 14.3932 9.06183 14.2725 9.18267L10.5273 12.9279C10.4492 13.0058 10.3669 13.0608 10.2804 13.0929C10.1938 13.125 10.1004 13.141 9.99996 13.141Z" fill="#2A2B3F"/>
</svg>
