<svg width="18" height="18" viewBox="0 0 18 18" fill="none" xmlns="http://www.w3.org/2000/svg">
<mask id="mask0_149_24103" style="mask-type:luminance" maskUnits="userSpaceOnUse" x="0" y="0" width="17" height="17">
<path d="M16.7002 0.300049H0.700195V16.3H16.7002V0.300049Z" fill="white"/>
</mask>
<g mask="url(#mask0_149_24103)">
<path d="M8.69996 11.4257L6.10646 12.9897C6.00979 13.0462 5.91296 13.0699 5.81596 13.0609C5.71896 13.0519 5.63118 13.0192 5.55262 12.9629C5.47396 12.9064 5.41324 12.8327 5.37046 12.7417C5.32779 12.6507 5.32096 12.55 5.34996 12.4397L6.03846 9.49487L3.74879 7.51287C3.66323 7.43854 3.60873 7.35243 3.58529 7.25454C3.56173 7.15665 3.5679 7.06154 3.60379 6.96921C3.63968 6.87699 3.6914 6.8016 3.75896 6.74304C3.82651 6.68449 3.91885 6.64621 4.03596 6.62821L7.05762 6.36421L8.23079 3.58337C8.27346 3.47993 8.33818 3.40343 8.42496 3.35387C8.51174 3.30432 8.6034 3.27954 8.69996 3.27954C8.79651 3.27954 8.88818 3.30432 8.97496 3.35387C9.06174 3.40343 9.12646 3.47993 9.16912 3.58337L10.3423 6.36421L13.364 6.62821C13.4811 6.64621 13.5734 6.68449 13.641 6.74304C13.7085 6.8016 13.7602 6.87699 13.7961 6.96921C13.832 7.06154 13.8382 7.15665 13.8146 7.25454C13.7912 7.35243 13.7367 7.43854 13.6511 7.51287L11.3615 9.49487L12.05 12.4397C12.079 12.55 12.0721 12.6507 12.0295 12.7417C11.9867 12.8327 11.926 12.9064 11.8473 12.9629C11.7687 13.0192 11.681 13.0519 11.584 13.0609C11.487 13.0699 11.3901 13.0462 11.2935 12.9897L8.69996 11.4257Z" fill="#F69C08"/>
</g>
<path d="M9.84302 12.5686L7.24952 14.1326C7.15286 14.189 7.05602 14.2128 6.95902 14.2038C6.86202 14.1948 6.77425 14.1621 6.69569 14.1058C6.61702 14.0493 6.5563 13.9756 6.51352 13.8846C6.47086 13.7936 6.46402 13.6929 6.49302 13.5826L7.18152 10.6378L4.89186 8.65576C4.8063 8.58142 4.7518 8.49531 4.72836 8.39742C4.7048 8.29954 4.71097 8.20442 4.74686 8.11209C4.78275 8.01987 4.83447 7.94448 4.90202 7.88592C4.96958 7.82737 5.06191 7.78909 5.17902 7.77109L8.20069 7.50709L9.37386 4.72626C9.41652 4.62281 9.48125 4.54631 9.56802 4.49676C9.6548 4.4472 9.74647 4.42242 9.84302 4.42242C9.93958 4.42242 10.0312 4.4472 10.118 4.49676C10.2048 4.54631 10.2695 4.62281 10.3122 4.72626L11.4854 7.50709L14.507 7.77109C14.6241 7.78909 14.7165 7.82737 14.784 7.88592C14.8516 7.94448 14.9033 8.01987 14.9392 8.11209C14.9751 8.20442 14.9812 8.29954 14.9577 8.39742C14.9342 8.49531 14.8797 8.58142 14.7942 8.65576L12.5045 10.6378L13.193 13.5826C13.222 13.6929 13.2152 13.7936 13.1725 13.8846C13.1297 13.9756 13.069 14.0493 12.9904 14.1058C12.9118 14.1621 12.824 14.1948 12.727 14.2038C12.63 14.2128 12.5332 14.189 12.4365 14.1326L9.84302 12.5686Z" stroke="#F69C08" stroke-width="1.33333"/>
</svg>
