<svg width="1293" height="631" viewBox="0 0 1293 631" fill="none" xmlns="http://www.w3.org/2000/svg">
<g clip-path="url(#clip0_2_851)">
<g clip-path="url(#clip1_2_851)">
<path d="M0.5 8.19653C0.5 3.77825 4.08172 0.196533 8.5 0.196533H1284.5C1288.92 0.196533 1292.5 3.77826 1292.5 8.19653V16.1965C1292.5 20.6148 1288.92 24.1965 1284.5 24.1965H8.50002C4.08175 24.1965 0.5 20.6148 0.5 16.1965V8.19653Z" fill="#E9EAF2"/>
<path d="M0.5 48.1965C0.5 43.7783 4.08172 40.1965 8.5 40.1965H42.5C46.9183 40.1965 50.5 43.7783 50.5 48.1965V82.1965C50.5 86.6148 46.9183 90.1965 42.5 90.1965H8.5C4.08172 90.1965 0.5 86.6148 0.5 82.1965V48.1965Z" fill="#E9EAF2"/>
<path d="M66.5 47.1965C66.5 43.3305 69.634 40.1965 73.5 40.1965H1285.5C1289.37 40.1965 1292.5 43.3305 1292.5 47.1965C1292.5 51.0625 1289.37 54.1965 1285.5 54.1965H73.5C69.634 54.1965 66.5 51.0625 66.5 47.1965Z" fill="#E9EAF2"/>
<path d="M66.5 65.1965C66.5 61.3305 69.634 58.1965 73.5 58.1965H1285.5C1289.37 58.1965 1292.5 61.3305 1292.5 65.1965C1292.5 69.0625 1289.37 72.1965 1285.5 72.1965H73.5C69.634 72.1965 66.5 69.0625 66.5 65.1965Z" fill="#E9EAF2"/>
<path d="M66.5 83.1965C66.5 79.3305 69.634 76.1965 73.5 76.1965H1285.5C1289.37 76.1965 1292.5 79.3305 1292.5 83.1965C1292.5 87.0625 1289.37 90.1965 1285.5 90.1965H73.5C69.634 90.1965 66.5 87.0625 66.5 83.1965Z" fill="#E9EAF2"/>
<path d="M66.5 101.197C66.5 97.3305 69.634 94.1965 73.5 94.1965H1285.5C1289.37 94.1965 1292.5 97.3305 1292.5 101.197C1292.5 105.063 1289.37 108.197 1285.5 108.197H73.5C69.634 108.197 66.5 105.063 66.5 101.197Z" fill="#E9EAF2"/>
<path d="M0.5 132.197C0.5 127.778 4.08172 124.197 8.5 124.197H42.5C46.9183 124.197 50.5 127.778 50.5 132.197V166.197C50.5 170.615 46.9183 174.197 42.5 174.197H8.5C4.08172 174.197 0.5 170.615 0.5 166.197V132.197Z" fill="#E9EAF2"/>
<path d="M66.5 131.197C66.5 127.331 69.634 124.197 73.5 124.197H1285.5C1289.37 124.197 1292.5 127.331 1292.5 131.197C1292.5 135.063 1289.37 138.197 1285.5 138.197H73.5C69.634 138.197 66.5 135.063 66.5 131.197Z" fill="#E9EAF2"/>
<path d="M66.5 149.197C66.5 145.331 69.634 142.197 73.5 142.197H1285.5C1289.37 142.197 1292.5 145.331 1292.5 149.197C1292.5 153.063 1289.37 156.197 1285.5 156.197H73.5C69.634 156.197 66.5 153.063 66.5 149.197Z" fill="#E9EAF2"/>
<path d="M66.5 167.197C66.5 163.331 69.634 160.197 73.5 160.197H1285.5C1289.37 160.197 1292.5 163.331 1292.5 167.197C1292.5 171.063 1289.37 174.197 1285.5 174.197H73.5C69.634 174.197 66.5 171.063 66.5 167.197Z" fill="#E9EAF2"/>
<path d="M66.5 185.197C66.5 181.331 69.634 178.197 73.5 178.197H1285.5C1289.37 178.197 1292.5 181.331 1292.5 185.197C1292.5 189.063 1289.37 192.197 1285.5 192.197H73.5C69.634 192.197 66.5 189.063 66.5 185.197Z" fill="#E9EAF2"/>
<path d="M0.5 216.197C0.5 211.778 4.08172 208.197 8.5 208.197H42.5C46.9183 208.197 50.5 211.778 50.5 216.197V250.197C50.5 254.615 46.9183 258.197 42.5 258.197H8.5C4.08172 258.197 0.5 254.615 0.5 250.197V216.197Z" fill="#E9EAF2"/>
<path d="M66.5 215.197C66.5 211.331 69.634 208.197 73.5 208.197H1285.5C1289.37 208.197 1292.5 211.331 1292.5 215.197C1292.5 219.063 1289.37 222.197 1285.5 222.197H73.5C69.634 222.197 66.5 219.063 66.5 215.197Z" fill="#E9EAF2"/>
<path d="M66.5 233.197C66.5 229.331 69.634 226.197 73.5 226.197H1285.5C1289.37 226.197 1292.5 229.331 1292.5 233.197C1292.5 237.063 1289.37 240.197 1285.5 240.197H73.5C69.634 240.197 66.5 237.063 66.5 233.197Z" fill="#E9EAF2"/>
<path d="M66.5 251.197C66.5 247.331 69.634 244.197 73.5 244.197H1285.5C1289.37 244.197 1292.5 247.331 1292.5 251.197C1292.5 255.063 1289.37 258.197 1285.5 258.197H73.5C69.634 258.197 66.5 255.063 66.5 251.197Z" fill="#E9EAF2"/>
<path d="M66.5 269.197C66.5 265.331 69.634 262.197 73.5 262.197H1285.5C1289.37 262.197 1292.5 265.331 1292.5 269.197C1292.5 273.063 1289.37 276.197 1285.5 276.197H73.5C69.634 276.197 66.5 273.063 66.5 269.197Z" fill="#E9EAF2"/>
<path d="M0.5 300.197C0.5 295.778 4.08172 292.197 8.5 292.197H42.5C46.9183 292.197 50.5 295.778 50.5 300.197V334.197C50.5 338.615 46.9183 342.197 42.5 342.197H8.5C4.08172 342.197 0.5 338.615 0.5 334.197V300.197Z" fill="#E9EAF2"/>
<path d="M66.5 299.197C66.5 295.331 69.634 292.197 73.5 292.197H1285.5C1289.37 292.197 1292.5 295.331 1292.5 299.197C1292.5 303.063 1289.37 306.197 1285.5 306.197H73.5C69.634 306.197 66.5 303.063 66.5 299.197Z" fill="#E9EAF2"/>
<path d="M66.5 317.197C66.5 313.331 69.634 310.197 73.5 310.197H1285.5C1289.37 310.197 1292.5 313.331 1292.5 317.197C1292.5 321.063 1289.37 324.197 1285.5 324.197H73.5C69.634 324.197 66.5 321.063 66.5 317.197Z" fill="#E9EAF2"/>
<path d="M66.5 335.197C66.5 331.331 69.634 328.197 73.5 328.197H1285.5C1289.37 328.197 1292.5 331.331 1292.5 335.197C1292.5 339.063 1289.37 342.197 1285.5 342.197H73.5C69.634 342.197 66.5 339.063 66.5 335.197Z" fill="#E9EAF2"/>
<path d="M66.5 353.197C66.5 349.331 69.634 346.197 73.5 346.197H1285.5C1289.37 346.197 1292.5 349.331 1292.5 353.197C1292.5 357.063 1289.37 360.197 1285.5 360.197H73.5C69.634 360.197 66.5 357.063 66.5 353.197Z" fill="#E9EAF2"/>
<path d="M0.5 392.197C0.5 387.778 4.08172 384.197 8.5 384.197H1284.5C1288.92 384.197 1292.5 387.778 1292.5 392.197V400.197C1292.5 404.615 1288.92 408.197 1284.5 408.197H8.50002C4.08175 408.197 0.5 404.615 0.5 400.197V392.197Z" fill="#E9EAF2"/>
<path d="M0.5 432.197C0.5 427.778 4.08172 424.197 8.5 424.197H42.5C46.9183 424.197 50.5 427.778 50.5 432.197V466.197C50.5 470.615 46.9183 474.197 42.5 474.197H8.5C4.08172 474.197 0.5 470.615 0.5 466.197V432.197Z" fill="#E9EAF2"/>
<path d="M66.5 431.197C66.5 427.331 69.634 424.197 73.5 424.197H1285.5C1289.37 424.197 1292.5 427.331 1292.5 431.197C1292.5 435.063 1289.37 438.197 1285.5 438.197H73.5C69.634 438.197 66.5 435.063 66.5 431.197Z" fill="#E9EAF2"/>
<path d="M66.5 449.197C66.5 445.331 69.634 442.197 73.5 442.197H1285.5C1289.37 442.197 1292.5 445.331 1292.5 449.197C1292.5 453.063 1289.37 456.197 1285.5 456.197H73.5C69.634 456.197 66.5 453.063 66.5 449.197Z" fill="#E9EAF2"/>
<path d="M66.5 467.197C66.5 463.331 69.634 460.197 73.5 460.197H1285.5C1289.37 460.197 1292.5 463.331 1292.5 467.197C1292.5 471.063 1289.37 474.197 1285.5 474.197H73.5C69.634 474.197 66.5 471.063 66.5 467.197Z" fill="#E9EAF2"/>
<path d="M66.5 485.197C66.5 481.331 69.634 478.197 73.5 478.197H1285.5C1289.37 478.197 1292.5 481.331 1292.5 485.197C1292.5 489.063 1289.37 492.197 1285.5 492.197H73.5C69.634 492.197 66.5 489.063 66.5 485.197Z" fill="#E9EAF2"/>
<path d="M0.5 516.197C0.5 511.778 4.08172 508.197 8.5 508.197H42.5C46.9183 508.197 50.5 511.778 50.5 516.197V550.197C50.5 554.615 46.9183 558.197 42.5 558.197H8.5C4.08172 558.197 0.5 554.615 0.5 550.197V516.197Z" fill="#E9EAF2"/>
<path d="M66.5 515.197C66.5 511.331 69.634 508.197 73.5 508.197H1285.5C1289.37 508.197 1292.5 511.331 1292.5 515.197C1292.5 519.063 1289.37 522.197 1285.5 522.197H73.5C69.634 522.197 66.5 519.063 66.5 515.197Z" fill="#E9EAF2"/>
<path d="M66.5 533.197C66.5 529.331 69.634 526.197 73.5 526.197H1285.5C1289.37 526.197 1292.5 529.331 1292.5 533.197C1292.5 537.063 1289.37 540.197 1285.5 540.197H73.5C69.634 540.197 66.5 537.063 66.5 533.197Z" fill="#E9EAF2"/>
<path d="M66.5 551.197C66.5 547.331 69.634 544.197 73.5 544.197H1285.5C1289.37 544.197 1292.5 547.331 1292.5 551.197C1292.5 555.063 1289.37 558.197 1285.5 558.197H73.5C69.634 558.197 66.5 555.063 66.5 551.197Z" fill="#E9EAF2"/>
<path d="M66.5 569.197C66.5 565.331 69.634 562.197 73.5 562.197H1285.5C1289.37 562.197 1292.5 565.331 1292.5 569.197C1292.5 573.063 1289.37 576.197 1285.5 576.197H73.5C69.634 576.197 66.5 573.063 66.5 569.197Z" fill="#E9EAF2"/>
<path d="M0.5 600.197C0.5 595.778 4.08172 592.197 8.5 592.197H42.5C46.9183 592.197 50.5 595.778 50.5 600.197V634.197C50.5 638.615 46.9183 642.197 42.5 642.197H8.5C4.08172 642.197 0.5 638.615 0.5 634.197V600.197Z" fill="#E9EAF2"/>
<path d="M66.5 599.197C66.5 595.331 69.634 592.197 73.5 592.197H1285.5C1289.37 592.197 1292.5 595.331 1292.5 599.197C1292.5 603.063 1289.37 606.197 1285.5 606.197H73.5C69.634 606.197 66.5 603.063 66.5 599.197Z" fill="#E9EAF2"/>
<path d="M66.5 617.197C66.5 613.331 69.634 610.197 73.5 610.197H1285.5C1289.37 610.197 1292.5 613.331 1292.5 617.197C1292.5 621.063 1289.37 624.197 1285.5 624.197H73.5C69.634 624.197 66.5 621.063 66.5 617.197Z" fill="#E9EAF2"/>
<path d="M66.5 635.197C66.5 631.331 69.634 628.197 73.5 628.197H1285.5C1289.37 628.197 1292.5 631.331 1292.5 635.197C1292.5 639.063 1289.37 642.197 1285.5 642.197H73.5C69.634 642.197 66.5 639.063 66.5 635.197Z" fill="#E9EAF2"/>
</g>
</g>
<defs>
<clipPath id="clip0_2_851">
<rect width="1292" height="630" fill="white" transform="translate(0.5 0.196533)"/>
</clipPath>
<clipPath id="clip1_2_851">
<rect width="1292" height="630" fill="white" transform="translate(0.5 0.196533)"/>
</clipPath>
</defs>
</svg>
