<svg width="19" height="17" viewBox="0 0 19 17" fill="none" xmlns="http://www.w3.org/2000/svg">
<g clip-path="url(#clip0_2_461)">
<path d="M18.0253 12.4158C18.0253 10.155 16.4295 8.41226 13.9419 8.50645C14.1766 5.35071 16.6173 2.61886 18.26 1.34714L17.7906 0.640625C14.3643 2.80726 10.0463 7.28185 10.0463 11.8977C10.0463 14.5354 11.5482 16.4665 13.9889 16.4665C16.4295 16.4665 18.0253 14.5824 18.0253 12.4158ZM8.47907 12.4158C8.47907 10.155 6.88325 8.41226 4.39566 8.50645C4.63034 5.35071 7.07098 2.61886 8.71372 1.34714L8.24439 0.640625C4.81807 2.80726 0.5 7.28185 0.5 11.8977C0.5 14.5354 2.00194 16.4665 4.44258 16.4665C6.88325 16.4665 8.47907 14.5824 8.47907 12.4158Z" fill="#1C1D1F"/>
</g>
<defs>
<clipPath id="clip0_2_461">
<rect width="17.76" height="16.1" fill="white" transform="translate(0.5 0.640625)"/>
</clipPath>
</defs>
</svg>
