<svg width="111" height="29" viewBox="0 0 111 29" fill="none" xmlns="http://www.w3.org/2000/svg">
<g clip-path="url(#clip0_2_471)">
<path d="M25.7364 14.4788L24.4677 14.3665C23.4719 14.2863 23.0865 13.8847 23.0865 13.21C23.0865 12.4071 23.6968 11.909 24.8533 11.909C25.6724 11.909 26.395 12.1019 26.9578 12.5355L27.7127 11.7806C27.0053 11.2025 25.9939 10.9296 24.8699 10.9296C23.1835 10.9296 21.9627 11.7961 21.9627 13.2422C21.9627 14.5431 22.782 15.2337 24.3238 15.3623L25.6247 15.4746C26.54 15.5551 26.9417 15.9404 26.9417 16.631C26.9417 17.5626 26.1386 18.0281 24.8372 18.0281C23.8573 18.0281 23.0061 17.7711 22.379 17.1126L21.6079 17.8836C22.4754 18.7187 23.5193 19.0239 24.8524 19.0239C26.7636 19.0239 28.0647 18.1397 28.0647 16.6149C28.0647 15.1368 27.1177 14.6075 25.7364 14.4788ZM35.6246 10.9292C34.3568 10.9292 33.5581 11.1791 32.8583 12.0651C32.8488 12.0773 33.617 12.8242 33.617 12.8242C34.0827 12.1657 34.5966 11.9251 35.6083 11.9251C37.0539 11.9251 37.6322 12.5032 37.6322 13.6594V14.4142H35.2557C33.489 14.4142 32.5255 15.3138 32.5255 16.6956C32.5069 17.2879 32.7201 17.8641 33.1197 18.3017C33.6177 18.8158 34.26 19.0245 35.3521 19.0245C36.4121 19.0245 36.9904 18.8158 37.6334 18.1731V18.9279H38.7898V13.5632C38.7898 11.8448 37.7464 10.9296 35.6258 10.9296L35.6246 10.9292ZM37.6329 16.1337C37.6329 16.7925 37.5043 17.2422 37.2313 17.499C36.7334 17.9809 36.1392 18.0295 35.4647 18.0295C34.2119 18.0295 33.6496 17.5957 33.6496 16.6802C33.6496 15.7646 34.2278 15.2831 35.4166 15.2831H37.6329V16.1337ZM43.3184 11.9581C44.0732 11.9581 44.5387 12.1829 45.1332 12.8413C45.1332 12.8413 45.9075 12.0888 45.9011 12.0821C45.0903 11.2147 44.402 10.9303 43.3191 10.9303C41.3274 10.9303 39.8175 12.2793 39.8175 14.9775C39.8175 17.6756 41.3271 19.025 43.3191 19.025C44.4112 19.025 45.1018 18.7357 45.9209 17.8525L45.1339 17.0975C44.5397 17.7561 44.0739 17.997 43.3191 17.997C42.596 18.0259 41.9073 17.6875 41.4882 17.0975C41.1188 16.5836 40.9743 15.9733 40.9743 14.9775C40.9743 13.9816 41.1188 13.3713 41.4882 12.8574C41.9072 12.2673 42.5953 11.929 43.3184 11.9581ZM53.2227 11.0148H51.781L48.198 14.5023L48.2035 7.49219H47.0467V18.9279H48.2033L48.1978 16.0437L49.6004 14.6361L52.251 18.9279H53.6803L50.4016 13.8347L53.2227 11.0148ZM58.5658 10.8203C57.3809 10.8203 56.5803 11.282 56.0876 11.8053C55.3641 12.5596 55.1795 13.4677 55.1795 14.9147C55.1795 16.3769 55.3641 17.2845 56.0876 18.0394C56.5803 18.5627 57.3805 19.0247 58.5658 19.0247C59.751 19.0247 60.567 18.5627 61.0594 18.0394C61.7828 17.2852 61.9677 16.377 61.9677 14.9147C61.9677 13.4679 61.7828 12.5596 61.0594 11.8053C60.567 11.282 59.7507 10.8203 58.5658 10.8203ZM59.5049 16.8696C59.254 17.1119 58.9142 17.2399 58.5658 17.2233C58.222 17.2399 57.887 17.1116 57.6423 16.8696C57.2265 16.454 57.1805 15.7461 57.1805 14.9147C57.1805 14.0833 57.2265 13.391 57.6423 12.9754C57.887 12.7333 58.222 12.605 58.5658 12.6217C58.9142 12.605 59.254 12.733 59.5049 12.9754C59.9203 13.391 59.9666 14.0835 59.9666 14.9147C59.9666 15.7459 59.9203 16.4533 59.5049 16.8696ZM67.2959 10.9122L65.6799 15.8684L64.0483 10.9119H61.9392L64.8949 18.9315H66.4647L69.4045 10.9119L67.2959 10.9122ZM72.8088 10.82C70.731 10.82 69.3148 12.2975 69.3148 14.9143C69.3148 18.1623 71.1313 19.0243 73.0244 19.0243C74.4714 19.0243 75.2566 18.5778 76.0722 17.7618L74.8564 16.5769C74.3483 17.085 73.9171 17.3311 73.0398 17.3311C71.9161 17.3311 71.2851 16.5769 71.2851 15.545H76.303V14.6528C76.303 12.4515 75.0408 10.82 72.8088 10.82ZM71.2851 14.1755C71.288 13.8786 71.3509 13.5854 71.4699 13.3135C71.7221 12.8045 72.2411 12.4825 72.8091 12.4825C73.3772 12.4825 73.8961 12.8045 74.1483 13.3135C74.2669 13.5856 74.3297 13.8787 74.3329 14.1755H71.2851ZM79.2548 11.6819V10.9122H77.2997V18.9318H79.3008V14.0987C79.3008 13.0827 79.9781 12.6208 80.5939 12.6208C80.9997 12.6068 81.3893 12.7807 81.6497 13.0923L83.1646 11.5742C82.6103 11.0199 82.0563 10.82 81.2712 10.82C80.5079 10.8109 79.7756 11.1238 79.2548 11.6819ZM83.7855 10.0763V18.9237H85.7864V12.6006H87.2641V11.0769H85.7864V10.1996C85.7864 9.73782 86.0175 9.47608 86.4938 9.47608H87.2634V7.78311H86.1245C84.4925 7.78311 83.7855 8.9374 83.7855 10.0763ZM95.5017 10.8191C94.3168 10.8191 93.5161 11.2808 93.0235 11.8041C92.3002 12.5584 92.1154 13.4665 92.1154 14.9134C92.1154 16.3756 92.3002 17.2832 93.0235 18.0382C93.5161 18.5615 94.3165 19.0234 95.5017 19.0234C96.687 19.0234 97.503 18.5615 97.9953 18.0382C98.7186 17.2839 98.9034 16.3758 98.9034 14.9134C98.9034 13.4666 98.7186 12.5584 97.9953 11.8041C97.5028 11.2808 96.6866 10.8191 95.5017 10.8191ZM96.4408 16.8683C96.1899 17.1107 95.8501 17.2386 95.5017 17.222C95.158 17.2387 94.823 17.1104 94.5782 16.8683C94.1626 16.4527 94.1165 15.7448 94.1165 14.9134C94.1165 14.0821 94.1626 13.3897 94.5782 12.9741C94.8229 12.732 95.1579 12.6037 95.5017 12.6204C95.8501 12.6037 96.19 12.7317 96.4408 12.9741C96.8562 13.3897 96.9026 14.0823 96.9026 14.9134C96.9026 15.7446 96.8562 16.452 96.4408 16.8683ZM108.357 10.9114L107.064 15.8684L105.417 10.9122H103.955L102.324 15.8684L101.031 10.9119H98.9066L101.369 18.9315H103.016L104.694 13.8983L106.372 18.9315H108.019L110.466 10.9119L108.357 10.9114ZM90.2155 16.5152V7.78311H88.2152V16.6383C88.2152 17.7773 88.9081 18.9318 90.5549 18.9318H91.6938V17.2385H90.9244C90.4165 17.2385 90.217 16.9923 90.217 16.5152H90.2155ZM31.2718 12.2688L32.341 11.1996H30.1517V8.59997H28.9952V16.8079C28.9952 17.9802 29.6697 18.9279 31.0189 18.9279H31.8377V17.9321H31.2276C30.4889 17.9321 30.1517 17.4983 30.1517 16.7757V12.2688H31.2718Z" fill="#1E1B1D"/>
<path fill-rule="evenodd" clip-rule="evenodd" d="M16.0627 15.0557H18.008V22.8371H0.5V15.0557H2.44534V20.8918H16.0627V15.0557Z" fill="#BBBBBB"/>
<path d="M4.56534 14.477L14.1196 16.4852L14.5212 14.5752L4.96696 12.5662L4.56534 14.477ZM5.82962 9.90217L14.6802 14.0241L15.5047 12.254L6.65393 8.13208L5.82962 9.90217ZM8.27863 5.56L15.782 11.8082L17.0316 10.3077L9.52824 4.05961L8.27863 5.56ZM13.122 0.941406L11.5551 2.10684L17.3819 9.94125L18.9488 8.77599L13.122 0.941406ZM4.39062 18.946H14.1173V17.0007H4.39062V18.946Z" fill="#F58025"/>
</g>
<defs>
<clipPath id="clip0_2_471">
<rect width="110" height="28" fill="white" transform="translate(0.5 0.907227)"/>
</clipPath>
</defs>
</svg>
